<?xml version="1.0" encoding="utf-8"?>
<!-- Generator: Adobe Illustrator 16.0.0, SVG Export Plug-In . SVG Version: 6.00 Build 0)  -->
<!DOCTYPE svg PUBLIC "-//W3C//DTD SVG 1.1//EN" "http://www.w3.org/Graphics/SVG/1.1/DTD/svg11.dtd">
<svg version="1.1" id="Capa_1" xmlns="http://www.w3.org/2000/svg" xmlns:xlink="http://www.w3.org/1999/xlink" x="0px" y="0px"
	 width="283.46px" height="283.46px" viewBox="155.91 0 283.46 283.46" enable-background="new 155.91 0 283.46 283.46"
	 xml:space="preserve">
<path fill="#FAAD00" d="M182.485,35.433c-14.671,0-26.574,11.903-26.574,26.574c0,8.36,3.931,16.222,10.63,21.259l120.471,90.353
	c6.312,4.707,14.947,4.707,21.26,0L428.74,83.266c6.698-5.038,10.629-12.899,10.629-21.259c0-14.671-11.901-26.574-26.573-26.574
	H182.485z M155.91,97.439v115.156c0,19.543,15.889,35.432,35.434,35.432h212.595c19.543,0,35.432-15.889,35.432-35.432V97.439
	L318.9,187.792c-12.623,9.467-29.896,9.467-42.52,0L155.91,97.439z"/>
</svg>
