<?xml version="1.0" encoding="utf-8"?>
<!-- Generator: Adobe Illustrator 16.0.0, SVG Export Plug-In . SVG Version: 6.00 Build 0)  -->
<!DOCTYPE svg PUBLIC "-//W3C//DTD SVG 1.1//EN" "http://www.w3.org/Graphics/SVG/1.1/DTD/svg11.dtd">
<svg version="1.1" id="Capa_1" xmlns="http://www.w3.org/2000/svg" xmlns:xlink="http://www.w3.org/1999/xlink" x="0px" y="0px"
	 width="283.26px" height="283.46px" viewBox="156.11 0 283.26 283.46" enable-background="new 156.11 0 283.26 283.46"
	 xml:space="preserve">
<path fill="#FAAD00" d="M350.789,141.73c0,12.291-0.665,24.139-1.826,35.434h-102.59c-1.218-11.295-1.826-23.143-1.826-35.434
	s0.664-24.138,1.826-35.433h102.59C350.18,117.592,350.789,129.439,350.789,141.73z M366.734,106.297h68.151
	c2.935,11.35,4.483,23.197,4.483,35.433c0,12.236-1.55,24.083-4.483,35.434h-68.151c1.162-11.406,1.771-23.254,1.771-35.434
	C368.506,129.55,367.896,117.702,366.734,106.297z M429.073,88.581h-64.608c-5.536-35.377-16.498-64.996-30.615-83.931
	c43.35,11.46,78.615,42.907,95.169,83.931H429.073z M346.526,88.581h-97.771c3.377-20.152,8.581-37.979,14.948-52.429
	c5.813-13.066,12.291-22.533,18.547-28.512C288.45,1.771,293.6,0,297.641,0c4.042,0,9.189,1.771,15.392,7.64
	c6.256,5.979,12.733,15.446,18.546,28.512C338.001,50.547,343.149,68.374,346.526,88.581z M230.817,88.581h-64.609
	c16.609-41.024,51.82-72.47,95.227-83.931C247.315,23.585,236.353,53.204,230.817,88.581L230.817,88.581z M160.395,106.297h68.151
	c-1.163,11.405-1.771,23.253-1.771,35.433c0,12.18,0.608,24.027,1.771,35.434h-68.151c-2.936-11.351-4.484-23.197-4.484-35.434
	C155.911,129.494,157.46,117.647,160.395,106.297z M263.702,247.251c-6.422-14.395-11.571-32.221-14.948-52.373h97.771
	c-3.377,20.152-8.581,37.979-14.948,52.373c-5.813,13.065-12.29,22.533-18.546,28.514c-6.201,5.924-11.35,7.695-15.392,7.695
	c-4.041,0-9.19-1.771-15.392-7.642c-6.256-5.979-12.732-15.446-18.547-28.512L263.702,247.251L263.702,247.251z M230.817,194.878
	c5.536,35.377,16.498,64.996,30.616,83.932c-43.405-11.461-78.616-42.907-95.227-83.932H230.817z M429.073,194.878
	c-16.608,41.023-51.819,72.471-95.169,83.932c14.117-18.936,25.023-48.555,30.615-83.932h64.608H429.073z"/>
</svg>
