<?xml version="1.0" encoding="utf-8"?>
<!-- Generator: Adobe Illustrator 16.0.0, SVG Export Plug-In . SVG Version: 6.00 Build 0)  -->
<!DOCTYPE svg PUBLIC "-//W3C//DTD SVG 1.1//EN" "http://www.w3.org/Graphics/SVG/1.1/DTD/svg11.dtd">
<svg version="1.1" id="Capa_1" xmlns="http://www.w3.org/2000/svg" xmlns:xlink="http://www.w3.org/1999/xlink" x="0px" y="0px"
	 width="212.595px" height="283.46px" viewBox="191.344 0 212.595 283.46" enable-background="new 191.344 0 212.595 283.46"
	 xml:space="preserve">
<path fill="#FAAD00" d="M310.761,276.375c28.4-35.545,93.177-121.688,93.177-170.077C403.938,47.612,356.325,0,297.64,0
	c-58.686,0-106.297,47.612-106.297,106.297c0,48.388,64.773,134.533,93.176,170.076
	C291.328,284.843,303.951,284.843,310.761,276.375z M297.64,70.865c19.569,0,35.433,15.864,35.433,35.433
	c0,19.569-15.862,35.433-35.433,35.433c-19.568,0-35.434-15.864-35.434-35.433C262.207,86.729,278.072,70.865,297.64,70.865z"/>
</svg>
