<?xml version="1.0" encoding="utf-8"?>
<!-- Generator: Adobe Illustrator 16.0.0, SVG Export Plug-In . SVG Version: 6.00 Build 0)  -->
<!DOCTYPE svg PUBLIC "-//W3C//DTD SVG 1.1//EN" "http://www.w3.org/Graphics/SVG/1.1/DTD/svg11.dtd">
<svg version="1.1" id="Capa_1" xmlns="http://www.w3.org/2000/svg" xmlns:xlink="http://www.w3.org/1999/xlink" x="0px" y="0px"
	 width="282.685px" height="283.46px" viewBox="155.91 0 282.685 283.46" enable-background="new 155.91 0 282.685 283.46"
	 xml:space="preserve">
<path fill="#FAAD00" d="M247.204,13.619c-4.263-10.297-15.502-15.778-26.242-12.844l-48.72,13.287
	c-9.634,2.658-16.332,11.405-16.332,21.371c0,136.969,111.06,248.027,248.027,248.027c9.965,0,18.713-6.699,21.37-16.332
	l13.287-48.721c2.935-10.74-2.547-21.979-12.846-26.242l-53.147-22.145c-9.024-3.766-19.487-1.163-25.633,6.422l-22.367,27.294
	c-38.977-18.437-70.532-49.993-88.97-88.969l27.294-22.312c7.585-6.201,10.188-16.609,6.424-25.633l-22.146-53.149L247.204,13.619
	L247.204,13.619z"/>
</svg>
