<?xml version="1.0" encoding="utf-8"?>
<!-- Generator: Adobe Illustrator 16.0.0, SVG Export Plug-In . SVG Version: 6.00 Build 0)  -->
<!DOCTYPE svg PUBLIC "-//W3C//DTD SVG 1.1//EN" "http://www.w3.org/Graphics/SVG/1.1/DTD/svg11.dtd">
<svg version="1.1" id="Capa_1" xmlns="http://www.w3.org/2000/svg" xmlns:xlink="http://www.w3.org/1999/xlink" x="0px" y="0px"
	 width="248.027px" height="283.46px" viewBox="173.626 0 248.027 283.46" enable-background="new 173.626 0 248.027 283.46"
	 xml:space="preserve">
<path fill="#FAAD00" d="M209.059,17.716c-19.543,0-35.434,15.889-35.434,35.433v177.162c0,19.544,15.891,35.433,35.434,35.433
	h54.366v-80.72h-29.231V141.73h29.231v-18.657c0-48.222,21.813-70.588,69.205-70.588c8.969,0,24.47,1.771,30.837,3.543v39.197
	c-3.322-0.332-9.136-0.553-16.389-0.553c-23.252,0-32.222,8.803-32.222,31.667v15.391h46.284l-7.973,43.294h-38.366v80.72h71.418
	c19.543,0,35.433-15.889,35.433-35.433V53.149c0-19.543-15.89-35.433-35.433-35.433H209.059z"/>
</svg>
