<?xml version="1.0" encoding="utf-8"?>
<!-- Generator: Adobe Illustrator 16.0.0, SVG Export Plug-In . SVG Version: 6.00 Build 0)  -->
<!DOCTYPE svg PUBLIC "-//W3C//DTD SVG 1.1//EN" "http://www.w3.org/Graphics/SVG/1.1/DTD/svg11.dtd">
<svg version="1.1" id="Capa_1" xmlns="http://www.w3.org/2000/svg" xmlns:xlink="http://www.w3.org/1999/xlink" x="0px" y="0px"
	 width="248.028px" height="283.46px" viewBox="173.626 0 248.028 283.46" enable-background="new 173.626 0 248.028 283.46"
	 xml:space="preserve">
<path fill="#FAAD00" d="M329.752,141.841l-52.707-29.952v59.903L329.752,141.841z M386.221,17.716H209.059
	c-19.543,0-35.434,15.889-35.434,35.433v177.162c0,19.544,15.891,35.433,35.434,35.433h177.162
	c19.543,0,35.433-15.889,35.433-35.433V53.149C421.654,33.605,405.764,17.716,386.221,17.716z M394.194,93.066
	c4.207,15.833,4.207,48.83,4.207,48.83s0,32.996-4.207,48.775c-2.325,8.746-9.135,15.336-17.827,17.66
	c-15.668,4.264-78.727,4.264-78.727,4.264s-63.06,0-78.728-4.209c-8.69-2.324-15.502-8.912-17.827-17.66
	c-4.207-15.834-4.207-48.83-4.207-48.83s0-33.052,4.207-48.83c2.325-8.748,9.137-15.613,17.827-17.938
	c15.668-4.263,78.728-4.263,78.728-4.263s63.059,0,78.727,4.263C385.059,77.453,391.868,84.318,394.194,93.066L394.194,93.066z"/>
</svg>
