<?xml version="1.0" encoding="utf-8"?>
<!-- Generator: Adobe Illustrator 16.0.0, SVG Export Plug-In . SVG Version: 6.00 Build 0)  -->
<!DOCTYPE svg PUBLIC "-//W3C//DTD SVG 1.1//EN" "http://www.w3.org/Graphics/SVG/1.1/DTD/svg11.dtd">
<svg version="1.1" id="Capa_1" xmlns="http://www.w3.org/2000/svg" xmlns:xlink="http://www.w3.org/1999/xlink" x="0px" y="0px"
	 width="248.028px" height="283.46px" viewBox="173.626 0 248.028 283.46" enable-background="new 173.626 0 248.028 283.46"
	 xml:space="preserve">
<path fill="#FAAD00" d="M209.059,17.716c-19.543,0-35.434,15.889-35.434,35.433v177.162c0,19.544,15.891,35.433,35.434,35.433
	h177.162c19.543,0,35.433-15.889,35.433-35.433V53.149c0-19.543-15.89-35.433-35.433-35.433H209.059z M368.117,110.339
	L368.117,110.339c0,48-36.54,103.308-103.308,103.308c-20.597,0-39.695-5.979-55.751-16.276c2.935,0.332,5.758,0.442,8.747,0.442
	c16.997,0,32.608-5.758,45.065-15.502c-15.945-0.332-29.343-10.796-33.938-25.19c5.592,0.832,10.63,0.832,16.388-0.664
	c-16.608-3.377-29.065-17.993-29.065-35.654v-0.443c4.816,2.713,10.465,4.374,16.389,4.595c-4.982-3.322-9.08-7.806-11.903-13.066
	c-2.823-5.259-4.318-11.184-4.263-17.163c0-6.754,1.771-12.955,4.927-18.325c17.883,22.035,44.733,36.429,74.852,37.979
	c-5.147-24.637,13.288-44.623,35.434-44.623c10.464,0,19.875,4.374,26.52,11.46c8.193-1.55,16.056-4.595,23.03-8.747
	c-2.713,8.415-8.415,15.501-15.943,19.986c7.308-0.775,14.395-2.823,20.927-5.647c-4.927,7.252-11.128,13.675-18.214,18.824
	C368.117,107.183,368.117,108.789,368.117,110.339L368.117,110.339z"/>
</svg>
