<?xml version="1.0" encoding="utf-8"?>
<!-- Generator: Adobe Illustrator 16.0.0, SVG Export Plug-In . SVG Version: 6.00 Build 0)  -->
<!DOCTYPE svg PUBLIC "-//W3C//DTD SVG 1.1//EN" "http://www.w3.org/Graphics/SVG/1.1/DTD/svg11.dtd">
<svg version="1.1" id="Capa_1" xmlns="http://www.w3.org/2000/svg" xmlns:xlink="http://www.w3.org/1999/xlink" x="0px" y="0px"
	 width="248.028px" height="283.46px" viewBox="173.626 0 248.028 283.46" enable-background="new 173.626 0 248.028 283.46"
	 xml:space="preserve">
<path fill="#FAAD00" d="M281.252,117.204c-13.561,9.066-17.204,27.409-8.138,40.969c9.065,13.561,27.408,17.203,40.969,8.138l0,0
	c13.562-9.065,17.204-27.408,8.139-40.969C313.156,111.782,294.813,108.138,281.252,117.204z M360.034,79.335
	c-2.879-2.879-6.365-5.148-10.187-6.644c-10.021-3.931-31.891-3.765-46.008-3.599c-2.271,0-4.374,0.056-6.2,0.056
	c-1.827,0-3.986,0-6.313-0.056c-14.117-0.166-35.875-0.388-45.896,3.599c-3.82,1.495-7.253,3.765-10.188,6.644
	c-2.934,2.879-5.147,6.367-6.644,10.187c-3.932,10.021-3.709,31.944-3.6,46.062c0,2.27,0.057,4.374,0.057,6.146
	c0,1.771,0,3.875-0.057,6.146c-0.109,14.117-0.332,36.041,3.6,46.062c1.495,3.819,3.765,7.253,6.644,10.188
	c2.879,2.934,6.367,5.147,10.188,6.644c10.021,3.931,31.889,3.765,46.007,3.599c2.27,0,4.373-0.056,6.2-0.056
	c1.826,0,3.985,0,6.312,0.056c14.118,0.166,35.876,0.387,45.896-3.599c3.82-1.495,7.252-3.765,10.187-6.644
	c2.936-2.879,5.148-6.367,6.645-10.188c3.985-9.965,3.765-31.776,3.599-45.951c0-2.325-0.056-4.483-0.056-6.311
	c0-1.827,0-3.931,0.056-6.312c0.166-14.118,0.388-35.931-3.599-45.952l0,0c-1.495-3.82-3.766-7.252-6.645-10.187L360.034,79.335
	L360.034,79.335z M322.886,103.972c20.853,13.943,26.455,42.15,12.512,63.004c-13.942,20.854-42.15,26.455-63.003,12.512
	c-20.854-13.928-26.468-42.123-12.54-62.976c13.928-20.853,42.123-26.467,62.976-12.54H322.886z M339.052,103.252
	c-1.717-1.163-3.102-2.823-3.932-4.761c-0.831-1.938-0.997-4.042-0.608-6.146c0.388-2.104,1.438-3.931,2.879-5.425
	c1.438-1.495,3.377-2.491,5.426-2.879s4.208-0.222,6.146,0.609c1.938,0.831,3.599,2.159,4.761,3.875
	c1.163,1.716,1.771,3.765,1.771,5.869c0,1.384-0.275,2.768-0.773,4.042c-0.499,1.273-1.329,2.436-2.271,3.433
	c-0.939,0.996-2.159,1.771-3.433,2.325c-1.274,0.554-2.657,0.83-4.041,0.83l0,0c-2.104,0-4.152-0.609-5.868-1.771L339.052,103.252
	L339.052,103.252z M421.654,53.149c0-19.543-15.89-35.433-35.433-35.433H209.059c-19.543,0-35.434,15.889-35.434,35.433v177.162
	c0,19.544,15.891,35.433,35.434,35.433h177.162c19.543,0,35.433-15.889,35.433-35.433V53.149z M371.274,215.363
	c-10.354,10.354-22.921,13.619-37.094,14.34c-14.616,0.83-58.465,0.83-73.079,0c-14.174-0.721-26.741-3.986-37.095-14.34
	s-13.618-22.92-14.283-37.094c-0.83-14.615-0.83-58.463,0-73.079c0.72-14.173,3.931-26.741,14.283-37.094
	c10.354-10.353,22.977-13.619,37.095-14.284c14.614-0.83,58.463-0.83,73.079,0c14.173,0.72,26.74,3.931,37.094,14.284
	s13.619,22.92,14.283,37.094c0.83,14.561,0.83,58.353,0,73.024c-0.72,14.173-3.932,26.74-14.283,37.094V215.363z"/>
</svg>
